<svg xmlns="http://www.w3.org/2000/svg" viewBox="0 0 512 512" width="512" height="512">
  <!-- Background Circle -->
  <circle cx="256" cy="256" r="240" fill="#2563eb" stroke="#1d4ed8" stroke-width="4"/>
  
  <!-- Note Paper -->
  <rect x="160" y="140" width="192" height="240" rx="8" fill="#ffffff" opacity="0.95"/>
  
  <!-- Note Lines -->
  <line x1="180" y1="180" x2="332" y2="180" stroke="#e5e7eb" stroke-width="2"/>
  <line x1="180" y1="200" x2="332" y2="200" stroke="#e5e7eb" stroke-width="2"/>
  <line x1="180" y1="220" x2="300" y2="220" stroke="#e5e7eb" stroke-width="2"/>
  <line x1="180" y1="240" x2="320" y2="240" stroke="#e5e7eb" stroke-width="2"/>
  <line x1="180" y1="260" x2="280" y2="260" stroke="#e5e7eb" stroke-width="2"/>
  
  <!-- Lock Icon -->
  <g transform="translate(220, 290)">
    <!-- Lock Body -->
    <rect x="8" y="20" width="56" height="40" rx="4" fill="#2563eb"/>
    
    <!-- Lock Shackle -->
    <path d="M20 20 Q20 8 36 8 Q52 8 52 20" 
          fill="none" 
          stroke="#2563eb" 
          stroke-width="6" 
          stroke-linecap="round"/>
    
    <!-- Keyhole -->
    <circle cx="36" cy="35" r="4" fill="#ffffff"/>
    <rect x="34" y="35" width="4" height="8" fill="#ffffff"/>
  </g>
  
  <!-- Decorative Elements -->
  <circle cx="400" cy="120" r="3" fill="#ffffff" opacity="0.6"/>
  <circle cx="420" cy="140" r="2" fill="#ffffff" opacity="0.4"/>
  <circle cx="100" cy="380" r="4" fill="#ffffff" opacity="0.5"/>
  <circle cx="80" cy="360" r="2" fill="#ffffff" opacity="0.3"/>
</svg> 